<mxfile host="app.diagrams.net" modified="2024-03-12T08:34:34.166Z" agent="Mozilla/5.0 (Windows NT 10.0; Win64; x64) AppleWebKit/537.36 (KHTML, like Gecko) Chrome/122.0.0.0 Safari/537.36" version="24.0.4" etag="8FdAhEDzkVZrz_W7xFFi" type="github">
  <diagram name="第 1 页" id="4FpjKzO7oTdV1kjVZiOa">
    <mxGraphModel>
      <root>
        <mxCell id="0" />
        <mxCell id="1" parent="0" />
      </root>
    </mxGraphModel>
  </diagram>
</mxfile>
